<svg xmlns="http://www.w3.org/2000/svg" width="116.666" height="50.655" viewBox="0 0 116.666 50.655">
  <g id="Layer_2" data-name="Layer 2" transform="translate(0 -0.006)">
    <g id="Layer_1" data-name="Layer 1" transform="translate(0 0.006)">
      <path id="Path_957" data-name="Path 957" d="M203.808,75l-2.068,4.289L204.123,81l2.426-1.032-.8-3.062Z" transform="translate(-105.383 -39.18)" fill="#2edaf4"/>
      <path id="Path_958" data-name="Path 958" d="M161.018,78.66l-2.068,4.294,2.383,1.71,2.426-1.036-.793-3.057Z" transform="translate(-83.031 -41.092)" fill="#2edaf4"/>
      <path id="Path_959" data-name="Path 959" d="M181.239,27.524a3.718,3.718,0,0,1-3.716,3.907H160.142l.478-.425a7.47,7.47,0,0,0,2.56-5.626,7.38,7.38,0,0,0-.2-1.715v-.072l.024-.067a4.327,4.327,0,0,1,8.416,1.433,4.394,4.394,0,0,1-.157,1.165.54.54,0,0,0-.024.154.568.568,0,0,0,1.113.153,5.521,5.521,0,0,0,.205-1.471,5.464,5.464,0,0,0-3.248-4.991l-.229-.1.11-.224A4.327,4.327,0,0,1,177.4,21.5a4.248,4.248,0,0,1-.038.549l-.029.224h-.478a.549.549,0,0,0-.4.158.564.564,0,0,0-.177.4h0a.568.568,0,0,0,.554.578c3.248.072,4.4,2.25,4.4,4.093Zm-9.075-11.415a5.512,5.512,0,0,0-4.136,3.272l-.072.167h-.182a5.459,5.459,0,0,0-5.149,2.24l-.22.306-.186-.33a7.5,7.5,0,0,0-3.491-3.171l-.129-.057V18.4a7.161,7.161,0,0,1-.043-.783,7.021,7.021,0,0,1,13.818-1.777l.067.253Zm-10.126,9.271a6.3,6.3,0,0,1-4.389,6.023H134.407a5.555,5.555,0,0,1-5.311-3.382,5.053,5.053,0,0,1,1.2-5.564.564.564,0,0,0,0-.8.573.573,0,0,0-.8,0,6.816,6.816,0,0,0-.745.869l-.148.2-.2-.153a5.66,5.66,0,0,1-2.049-3.343,5.732,5.732,0,0,1-.115-1.137,5.607,5.607,0,0,1,.955-3.119,5.669,5.669,0,0,1,7.847-1.59.571.571,0,0,0,.626-.955,6.687,6.687,0,0,0-2.254-.955h-.124l-.043-.139a4.613,4.613,0,0,1-.162-1.194,4.48,4.48,0,1,1,5.841,4.246,5.447,5.447,0,0,0,2.675,10.56.564.564,0,0,0,.43-.549.644.644,0,0,0,0-.134.568.568,0,0,0-.688-.416,4.332,4.332,0,0,1-5.254-3.148,4.4,4.4,0,0,1-.129-1.056,4.346,4.346,0,0,1,.616-2.221,4.3,4.3,0,0,1,2.651-1.968h.043A5.6,5.6,0,0,0,142.89,8.4a5.674,5.674,0,0,0-1.5-2.388l-.124-.115.072-.158a4.939,4.939,0,0,1,9.338,3.1l-.053.229-.229-.043a4.829,4.829,0,0,0-5.412,2.918.565.565,0,1,0,1.046.425,3.7,3.7,0,0,1,7.121,1.38,3.654,3.654,0,0,1-.272,1.385.63.63,0,0,0-.038.21.564.564,0,0,0,1.089.21,4.815,4.815,0,0,0-2.087-6l-.162-.091.053-.181a6.119,6.119,0,0,0,.2-1.548,6.008,6.008,0,0,0-.3-1.848l-.043-.139.1-.105a5.345,5.345,0,0,1,8.922,5.416l-.024.067-.057.043a8.12,8.12,0,0,0-3.109,6.405v.53l-.3-.057a7.451,7.451,0,0,0-8.87,7.327,7.532,7.532,0,0,0,.353,2.274.569.569,0,0,0,1.108-.172.52.52,0,0,0-.029-.172,6.328,6.328,0,1,1,12.051-3.869l.033.12v.1a.535.535,0,0,0,.048.186h0a6.262,6.262,0,0,1,.229,1.538Z" transform="translate(-65.944 -1.443)" fill="#2edaf4"/>
      <path id="Path_960" data-name="Path 960" d="M184,91.17l-2.068,4.294,2.383,1.71,2.426-1.032-.8-3.062Z" transform="translate(-95.035 -47.627)" fill="#2edaf4"/>
      <path id="Path_961" data-name="Path 961" d="M206.057,80s.053,2.995-2.173,2.756,2.359.745,2.359.745l.53-2.546Z" transform="translate(-106.184 -41.792)" fill="#30c9f2"/>
      <path id="Path_962" data-name="Path 962" d="M175.33,23.214s-.478.688-2.388-.239c0,0,1.614-2.617-.444-4.275a3.059,3.059,0,0,0-4.007.2s1.667-3.554,4.814-1.734S175.444,22.851,175.33,23.214Z" transform="translate(-88.014 -8.697)" fill="#30c9f2"/>
      <path id="Path_963" data-name="Path 963" d="M143.657,20.341c.817-5.02,5.5-4.265,5.072-8.521-.353-3.482-4.877-3-5.669-1.911l.339-1.543s5.813-3.085,7.642,2.417-1.4,5.607-2.584,6.252S143.657,20.341,143.657,20.341Z" transform="translate(-74.73 -3.923)" fill="#30c9f2"/>
      <path id="Path_964" data-name="Path 964" d="M164.485,8.991s1.777-3.554-1.4-5.359a3.617,3.617,0,0,0-5.006,1.132,3.47,3.47,0,0,1,3.931-3.286c3.768.234,6.782,2.426,5.865,7.322Z" transform="translate(-82.576 -0.769)" fill="#30c9f2"/>
      <path id="Path_965" data-name="Path 965" d="M186.4,13.893s1.495-5.178-2.164-7.164-5.478.6-5.478.6a1.371,1.371,0,0,1,.43-1.911c1.132-.755,4.533-2.207,7.437-.373s2.307,6.133,1.982,6.835A9.639,9.639,0,0,1,186.4,13.893Z" transform="translate(-93.264 -2.175)" fill="#30c9f2"/>
      <path id="Path_966" data-name="Path 966" d="M224.416,37.686a3.528,3.528,0,0,0-2.1-3.95,3.748,3.748,0,0,0-3.525-.258,3.205,3.205,0,0,1,2.866-1.8,4.507,4.507,0,0,1,4.389,5.612Z" transform="translate(-114.289 -16.544)" fill="#30c9f2"/>
      <path id="Path_967" data-name="Path 967" d="M204.938,25.506a4.713,4.713,0,0,0-4.628-4.948,5.842,5.842,0,0,0-6.181,3.859L193.69,23.3s1.829-5.435,7.164-5.254,7,3.659,7.164,6.352Z" transform="translate(-101.178 -9.427)" fill="#30c9f2"/>
      <path id="Path_968" data-name="Path 968" d="M213.772,45.554a3.845,3.845,0,0,1-2.8,0s1.5-6.352-3.983-5.278C206.995,40.276,213.682,35.973,213.772,45.554Z" transform="translate(-108.126 -20.538)" fill="#30c9f2"/>
      <path id="Path_969" data-name="Path 969" d="M138.419,49.3h23.237a6.3,6.3,0,0,0,4.227-7.542h0a.535.535,0,0,1-.048-.186v-.1l-.033-.119a6.329,6.329,0,0,0-12.347,1.619l.239.139a5.527,5.527,0,0,1,6.443-4.16c4.967.63,5.168,8.316-1.858,8.316H133.92A5.732,5.732,0,0,0,138.419,49.3Z" transform="translate(-69.956 -19.308)" fill="#30c9f2"/>
      <path id="Path_970" data-name="Path 970" d="M214.444,46l-.181.224c3.821.893,2.484,5.732-2.145,5.732H199.112a7.532,7.532,0,0,1-1.4,1.643l-.478.425h17.381a3.747,3.747,0,0,0,3.716-3.907V50.06A3.975,3.975,0,0,0,214.444,46Z" transform="translate(-103.027 -24.032)" fill="#30c9f2"/>
      <path id="Path_971" data-name="Path 971" d="M163.276,83.67s.053,2.995-2.173,2.756,2.355.745,2.355.745l.53-2.541Z" transform="translate(-83.837 -43.709)" fill="#30c9f2"/>
      <path id="Path_972" data-name="Path 972" d="M186.247,96.18s.053,2.995-2.173,2.756,2.359.74,2.359.74l.53-2.541Z" transform="translate(-95.836 -50.244)" fill="#30c9f2"/>
      <path id="Path_973" data-name="Path 973" d="M146.414.347a6.319,6.319,0,0,0-7.685,3.128,5.856,5.856,0,0,0-8.444,6.171,7.031,7.031,0,0,0-4,12.719,6.357,6.357,0,0,0,.048,4.776,6.9,6.9,0,0,0,6.582,4.232h43.116a5.116,5.116,0,0,0,5.087-5.254v-.062a5.306,5.306,0,0,0-3.893-5.2,5.442,5.442,0,0,0,.053-.783,5.732,5.732,0,0,0-4.127-5.483,5.909,5.909,0,0,0-.855-.177,8.382,8.382,0,0,0-11.544-5.951V7.951a6.725,6.725,0,0,0-11.11-5.082A6.281,6.281,0,0,0,146.414.347Zm26.3,15.762a4.093,4.093,0,0,1,2.923,4.452h-.263a.807.807,0,1,0-.033,1.614c3.081.067,4.165,2.106,4.165,3.85v.048a3.481,3.481,0,0,1-3.472,3.668H159.315a7.723,7.723,0,0,0,2.431-7.58,4.084,4.084,0,0,1,7.785,2.441.809.809,0,0,0,1.557.439,5.732,5.732,0,0,0-3.176-6.749,4.093,4.093,0,0,1,4.8-2.164Zm-2.063-1.7a5.732,5.732,0,0,0-4.3,3.415,5.732,5.732,0,0,0-5.416,2.355,7.69,7.69,0,0,0-3.606-3.272,6.782,6.782,0,0,1,13.3-2.479ZM148.588,4.254a4.676,4.676,0,0,1,.358,3.1,5.072,5.072,0,0,0-5.684,3.071.817.817,0,0,0,.444,1.056.807.807,0,0,0,1.051-.449,3.448,3.448,0,0,1,6.381-.043,3.4,3.4,0,0,1,0,2.641.808.808,0,1,0,1.5.6,5.015,5.015,0,0,0,.368-1.911,5.1,5.1,0,0,0-.4-1.977,5.034,5.034,0,0,0-2.159-2.422,6.209,6.209,0,0,0-.1-3.53,5.106,5.106,0,0,1,8.545,5.163,8.425,8.425,0,0,0-3.214,6.835,7.589,7.589,0,0,0-3.821.224,7.709,7.709,0,0,0-4.982,9.682.807.807,0,1,0,1.538-.478A6.085,6.085,0,1,1,160,22.1a.628.628,0,0,0,.047.158.855.855,0,0,0,.072.267,6.09,6.09,0,0,1-4.05,7.227H132.917a5.316,5.316,0,0,1-5.087-3.229,4.815,4.815,0,0,1,1.142-5.335.807.807,0,1,0-1.127-1.151,6.811,6.811,0,0,0-.774.9,5.419,5.419,0,0,1,6.348-8.774.808.808,0,1,0,.893-1.347,6.93,6.93,0,0,0-2.336-1,4.238,4.238,0,1,1,5.388,2.9,5.7,5.7,0,0,0,2.8,11.048.807.807,0,0,0,.611-.783.955.955,0,0,0-.024-.2.812.812,0,0,0-.979-.587,4.084,4.084,0,0,1-4.49-6.066,4.031,4.031,0,0,1,2.512-1.858h.053a5.851,5.851,0,0,0,2.221-9.834,4.7,4.7,0,0,1,8.516-.167Z" transform="translate(-64.453 -0.006)" fill="#1a43a8"/>
      <path id="Path_974" data-name="Path 974" d="M163.668,81.188c0-1.576-2.2-4.108-2.641-4.6a.841.841,0,0,0-.6-.258.86.86,0,0,0-.607.258c-.439.478-2.641,3.023-2.641,4.6a3.248,3.248,0,1,0,6.491,0Zm-4.867,0a7.292,7.292,0,0,1,1.624-2.8,7.43,7.43,0,0,1,1.624,2.8,1.624,1.624,0,1,1-3.248,0Z" transform="translate(-82.104 -39.875)" fill="#1a43a8"/>
      <path id="Path_975" data-name="Path 975" d="M206.208,77.417c0-1.576-2.2-4.108-2.641-4.6a.836.836,0,0,0-1.208,0c-.439.478-2.641,3.023-2.641,4.6a3.248,3.248,0,1,0,6.491,0Zm-4.867,0a7.263,7.263,0,0,1,1.619-2.8,7.362,7.362,0,0,1,1.624,2.8,1.624,1.624,0,1,1-3.243,0Z" transform="translate(-104.325 -37.906)" fill="#1a43a8"/>
      <path id="Path_976" data-name="Path 976" d="M186.648,93.687c0-1.576-2.2-4.108-2.641-4.6a.836.836,0,0,0-1.208,0c-.439.478-2.641,3.023-2.641,4.6a3.248,3.248,0,1,0,6.491,0Zm-4.867,0a7.227,7.227,0,0,1,1.624-2.8,7.43,7.43,0,0,1,1.624,2.8,1.624,1.624,0,0,1-3.248,0Z" transform="translate(-94.108 -46.404)" fill="#1a43a8"/>
      <path id="Path_977" data-name="Path 977" d="M6.84,47.124a4.877,4.877,0,0,1-2.1.425,4.848,4.848,0,0,1-2.087-.425,4.466,4.466,0,0,1-1.481-1.113A4.667,4.667,0,0,1,.3,44.45a5.641,5.641,0,0,1,.01-3.635,4.934,4.934,0,0,1,.9-1.61,4.49,4.49,0,0,1,1.5-1.137,4.714,4.714,0,0,1,2.073-.435,4.776,4.776,0,0,1,2.078.425,4.361,4.361,0,0,1,1.481,1.122,4.58,4.58,0,0,1,.893,1.591A5.8,5.8,0,0,1,9.553,42.6a5.734,5.734,0,0,1-.3,1.821A4.628,4.628,0,0,1,8.363,46,4.346,4.346,0,0,1,6.84,47.124ZM2.1,34.911a.592.592,0,0,1,.678-.659H3.73a.592.592,0,0,1,.678.659v.955a.592.592,0,0,1-.678.664H2.775a.592.592,0,0,1-.678-.664Zm4.59,9.619a2.517,2.517,0,0,0,.478-.85,3.157,3.157,0,0,0,.158-.993,3.367,3.367,0,0,0-.158-1.036,2.775,2.775,0,0,0-.478-.9,2.546,2.546,0,0,0-.8-.645,2.388,2.388,0,0,0-1.142-.248,2.465,2.465,0,0,0-1.1.239,2.422,2.422,0,0,0-.774.635,2.751,2.751,0,0,0-.478.893,3.138,3.138,0,0,0,0,2.02,2.656,2.656,0,0,0,.478.884,2.317,2.317,0,0,0,.807.616,2.632,2.632,0,0,0,1.132.229,2.574,2.574,0,0,0,1.122-.229,2.264,2.264,0,0,0,.759-.616Zm-.6-7.981a.6.6,0,0,1-.683-.664v-.955a.592.592,0,0,1,.683-.659h.955a.592.592,0,0,1,.678.659v.955a.592.592,0,0,1-.678.664Z" transform="translate(0 -17.891)" fill="#1a43a8"/>
      <path id="Path_978" data-name="Path 978" d="M20.8,44.728a.65.65,0,0,1,.736-.736H22.3a.65.65,0,0,1,.736.736v7.91a4.847,4.847,0,0,1-.759,2.995,2.866,2.866,0,0,1-2.388.955,6.481,6.481,0,0,1-1.27-.129c-.406-.048-.616-.267-.616-.621a.783.783,0,0,1,0-.11.8.8,0,0,1,.029-.129l.167-.621a.654.654,0,0,1,.7-.573,1.013,1.013,0,0,1,.2,0,3.113,3.113,0,0,0,.554.057.993.993,0,0,0,.9-.406,2.923,2.923,0,0,0,.253-1.433Z" transform="translate(-9.401 -22.98)" fill="#1a43a8"/>
      <path id="Path_979" data-name="Path 979" d="M36.145,47.325a7.952,7.952,0,0,1-1.5-.119,1.753,1.753,0,0,1-.9-.444,1.724,1.724,0,0,1-.444-.884,7.48,7.48,0,0,1-.119-1.466V34.558a.654.654,0,0,1,.736-.736h.755a.65.65,0,0,1,.736.736v9.853a.65.65,0,0,0,.736.736h1.82v2.178Z" transform="translate(-17.331 -17.667)" fill="#1a43a8"/>
      <path id="Path_980" data-name="Path 980" d="M54.326,50.8a5.569,5.569,0,0,1-2.3.444H41.894a1.247,1.247,0,0,1-.865-.306,1.089,1.089,0,0,1,0-1.562,1.227,1.227,0,0,1,.865-.306h1.232V42.068a.65.65,0,0,1,.736-.736H44.6a.65.65,0,0,1,.736.736v2.574a5.832,5.832,0,0,1,2.2-2.426,6.324,6.324,0,0,1,3.4-.865,6.687,6.687,0,0,1,2.3.4,5.822,5.822,0,0,1,1.882,1.094,5.1,5.1,0,0,1,1.247,1.672,4.848,4.848,0,0,1,.478,2.116v.22a2.388,2.388,0,0,0,.721,1.7,3.09,3.09,0,0,0,2,.53v2.173a5.254,5.254,0,0,1-2.264-.425,3.062,3.062,0,0,1-1.356-1.232A4.084,4.084,0,0,1,54.326,50.8Zm0-5.445a2.766,2.766,0,0,0-.769-.955,3.792,3.792,0,0,0-1.17-.616,4.7,4.7,0,0,0-1.481-.22A5.784,5.784,0,0,0,47.057,45a5.378,5.378,0,0,0-1.232,1.6,4.638,4.638,0,0,0-.506,1.987v.478h6.711a2.694,2.694,0,0,0,1.958-.607A2.479,2.479,0,0,0,54.6,46.62a2.866,2.866,0,0,0-.277-1.261Z" transform="translate(-21.26 -21.59)" fill="#1a43a8"/>
      <path id="Path_981" data-name="Path 981" d="M78.864,51.219a1.223,1.223,0,0,1-.845-.315,1.027,1.027,0,0,1,0-1.543,1.223,1.223,0,0,1,.845-.315h1.729a3.057,3.057,0,0,1-1.3-2.775,4.867,4.867,0,0,1,.42-2.059,4.666,4.666,0,0,1,1.161-1.576A5.125,5.125,0,0,1,82.6,41.619a6.6,6.6,0,0,1,2.159-.349,7.877,7.877,0,0,1,1.472.139,10.689,10.689,0,0,1,1.547.435.621.621,0,0,1,.516.607.9.9,0,0,1,0,.153,1.508,1.508,0,0,1-.057.177L88,43.386a.645.645,0,0,1-.783.478.988.988,0,0,1-.172-.053,7.007,7.007,0,0,0-1.137-.282,6.209,6.209,0,0,0-1.065-.091,4.208,4.208,0,0,0-1.328.2,3.262,3.262,0,0,0-1.056.573,2.426,2.426,0,0,0-.7.907,2.866,2.866,0,0,0-.248,1.223,2.465,2.465,0,0,0,.807,2.059,3.993,3.993,0,0,0,2.5.645h3.234a.65.65,0,0,1,.755.736v.7a.65.65,0,0,1-.736.736Z" transform="translate(-40.572 -21.561)" fill="#1a43a8"/>
      <path id="Path_982" data-name="Path 982" d="M18.13,10.98v-.029a4.189,4.189,0,0,1,8.378-.029v.029A4.108,4.108,0,0,1,22.3,15.04a4.065,4.065,0,0,1-4.17-4.06Zm6.577,0v-.029a2.426,2.426,0,0,0-2.388-2.527,2.355,2.355,0,0,0-2.388,2.5v.029a2.422,2.422,0,0,0,2.388,2.517,2.359,2.359,0,0,0,2.388-2.488Z" transform="translate(-9.471 -3.579)" fill="#1a43a8"/>
      <path id="Path_983" data-name="Path 983" d="M38.5,14.128a.683.683,0,0,1-.344-.626.721.721,0,0,1,.731-.726.764.764,0,0,1,.387.105,4.136,4.136,0,0,0,2.259.769c.774,0,1.223-.325,1.223-.845v-.029c0-.611-.836-.822-1.758-1.1-1.161-.349-2.441-.826-2.441-2.321V9.318c0-1.485,1.237-2.388,2.8-2.388a5.412,5.412,0,0,1,2.455.63.759.759,0,0,1,.43.683.726.726,0,0,1-.745.731.707.707,0,0,1-.353-.1A4.251,4.251,0,0,0,41.3,8.349c-.7,0-1.1.325-1.1.774v.029c0,.578.845.817,1.767,1.118,1.146.353,2.441.874,2.441,2.288v.029c0,1.653-1.28,2.469-2.914,2.469A5.354,5.354,0,0,1,38.5,14.128Z" transform="translate(-19.933 -3.623)" fill="#1a43a8"/>
      <path id="Path_984" data-name="Path 984" d="M54,12.641v-.029c0-1.7,1.323-2.531,3.243-2.531a6.505,6.505,0,0,1,2.111.33v-.2c0-1.113-.688-1.71-1.949-1.71a4.719,4.719,0,0,0-1.743.31.874.874,0,0,1-.282.048.75.75,0,0,1-.759-.745.783.783,0,0,1,.478-.712,6.687,6.687,0,0,1,2.531-.478,3.511,3.511,0,0,1,2.627.893,3.262,3.262,0,0,1,.845,2.422v3.878a.86.86,0,0,1-.893.855.812.812,0,0,1-.86-.759v-.3a3.2,3.2,0,0,1-2.56,1.156A2.525,2.525,0,0,1,54,12.641Zm5.383-.564v-.54a5.039,5.039,0,0,0-1.786-.31c-1.161,0-1.844.478-1.844,1.309v.029c0,.759.669,1.194,1.533,1.194,1.2,0,2.106-.688,2.106-1.681Z" transform="translate(-28.208 -3.616)" fill="#1a43a8"/>
      <path id="Path_985" data-name="Path 985" d="M73.39,7.905A.888.888,0,0,1,74.283,7a.9.9,0,0,1,.908.907v.8A2.459,2.459,0,0,1,77.168,7a.836.836,0,0,1,.893.893.85.85,0,0,1-.716.865c-1.28.22-2.154,1.2-2.154,3.062v2.321a.9.9,0,0,1-.908.893.884.884,0,0,1-.893-.893Z" transform="translate(-38.337 -3.657)" fill="#1a43a8"/>
      <path id="Path_986" data-name="Path 986" d="M86.24,1.633A.884.884,0,0,1,87.133.74a.9.9,0,0,1,.9.893V5.024a2.837,2.837,0,0,1,2.455-1.366,2.691,2.691,0,0,1,2.794,3v4.194a.879.879,0,0,1-.893.893.893.893,0,0,1-.908-.893V7.212c0-1.218-.607-1.911-1.676-1.911A1.727,1.727,0,0,0,88.031,7.24v3.616a.9.9,0,0,1-1.8,0Z" transform="translate(-45.044 -0.389)" fill="#1a43a8"/>
    </g>
  </g>
</svg>
